<?xml version="1.0" standalone="no"?>
<!DOCTYPE svg PUBLIC "-//W3C//DTD SVG 20010904//EN"
 "http://www.w3.org/TR/2001/REC-SVG-20010904/DTD/svg10.dtd">
<svg version="1.0" xmlns="http://www.w3.org/2000/svg"
 width="591.000000pt" height="591.000000pt" viewBox="0 0 591.000000 591.000000"
 preserveAspectRatio="xMidYMid meet">
<metadata>
Created by potrace 1.11, written by Peter Selinger 2001-2013
</metadata>
<g transform="translate(0.000000,591.000000) scale(0.100000,-0.100000)"
fill="#000000" stroke="none">
<path d="M1518 3779 c-305 -42 -485 -233 -477 -508 3 -117 47 -220 125 -294
104 -97 193 -133 534 -216 266 -65 354 -122 352 -227 -1 -106 -95 -171 -256
-179 -148 -7 -276 38 -375 133 -65 62 -114 147 -132 231 l-11 51 -106 0 -107
0 0 -303 c0 -166 3 -306 7 -312 3 -5 46 -10 94 -10 l88 0 34 58 c33 54 36 57
56 44 79 -51 185 -90 314 -113 102 -18 314 -13 407 10 73 19 198 75 237 107
130 106 190 239 183 409 -10 266 -169 406 -566 501 -343 81 -420 115 -448 195
-14 39 -13 44 10 90 50 101 172 138 352 107 170 -29 290 -129 337 -281 11 -35
17 -68 14 -73 -3 -5 44 -9 108 -9 l114 0 0 290 0 290 -98 0 -98 0 -24 -55 -25
-54 -56 34 c-134 80 -366 114 -587 84z"/>
<path d="M2600 3752 c-6 -2 -10 -45 -10 -102 l0 -97 43 -12 c97 -28 115 -64
226 -471 17 -63 55 -203 85 -310 30 -107 64 -229 75 -270 70 -262 83 -306 95
-315 13 -10 421 -13 431 -3 3 3 46 146 95 317 50 172 93 319 98 326 4 8 38
-99 81 -253 41 -147 83 -296 93 -332 l20 -65 204 1 c112 0 208 5 213 10 7 8
24 67 101 359 12 44 48 181 81 305 33 124 62 232 64 240 22 101 91 343 106
371 25 50 73 88 120 95 l39 7 0 98 c0 72 -3 99 -12 100 -7 0 -137 1 -288 2
l-275 0 -3 -100 -3 -100 62 -7 c90 -9 117 -40 98 -111 -6 -21 -12 -47 -15 -58
-2 -11 -14 -59 -28 -106 -21 -77 -35 -127 -41 -156 -2 -5 -22 -80 -44 -165
-23 -85 -44 -164 -47 -175 -21 -95 -52 -196 -57 -188 -3 5 -8 20 -11 34 -3 13
-7 33 -10 44 -39 165 -59 245 -66 270 -5 17 -19 71 -31 120 -11 50 -25 104
-30 120 -25 84 -63 255 -65 292 -4 69 32 92 134 83 21 -1 22 1 22 102 l0 103
-370 0 -370 0 0 -101 0 -101 41 -7 c88 -14 124 -62 163 -223 l13 -53 -104
-337 c-97 -314 -118 -374 -121 -341 0 7 -28 114 -62 238 -58 213 -80 294 -145
540 -35 128 -31 155 23 170 20 5 48 11 62 12 25 3 25 4 25 96 0 52 -4 96 -9
99 -9 6 -679 10 -696 5z"/>
</g>
</svg>
